HIERARCHY
ROOT Hips
{
	OFFSET 228.634003 92.561920 -263.051910
	CHANNELS 6 Xposition Yposition Zposition Zrotation Yrotation Xrotation 
	JOINT LeftUpLeg
	{
		OFFSET 0.103458 1.857820 10.548502
		CHANNELS 3 Zrotation Yrotation Xrotation
		JOINT LeftLeg
		{
			OFFSET 43.500000 -0.000023 -0.000011
			CHANNELS 3 Zrotation Yrotation Xrotation
			JOINT LeftFoot
			{
				OFFSET 42.372192 0.000038 0.000002
				CHANNELS 3 Zrotation Yrotation Xrotation
				JOINT LeftToe
				{
					OFFSET 17.299992 -0.000004 0.000006
					CHANNELS 3 Zrotation Yrotation Xrotation
					End Site
					{
						OFFSET 0.000000 0.000000 0.000000
					}
				}
			}
		}
	}
	JOINT RightUpLeg
	{
		OFFSET 0.103461 1.857814 -10.548508
		CHANNELS 3 Zrotation Yrotation Xrotation
		JOINT RightLeg
		{
			OFFSET 43.500042 -0.000015 0.000008
			CHANNELS 3 Zrotation Yrotation Xrotation
			JOINT RightFoot
			{
				OFFSET 42.372253 0.000008 0.000006
				CHANNELS 3 Zrotation Yrotation Xrotation
				JOINT RightToe
				{
					OFFSET 17.299973 -0.000014 0.000011
					CHANNELS 3 Zrotation Yrotation Xrotation
					End Site
					{
						OFFSET 0.000000 0.000000 0.000000
					}
				}
			}
		}
	}
	JOINT Spine
	{
		OFFSET 6.901966 -2.603737 -0.000007
		CHANNELS 3 Zrotation Yrotation Xrotation
		JOINT Spine1
		{
			OFFSET 12.588102 0.000017 0.000001
			CHANNELS 3 Zrotation Yrotation Xrotation
			JOINT Spine2
			{
				OFFSET 12.343197 -0.000013 0.000000
				CHANNELS 3 Zrotation Yrotation Xrotation
				JOINT Neck
				{
					OFFSET 25.832905 -0.000008 0.000000
					CHANNELS 3 Zrotation Yrotation Xrotation
					JOINT Head
					{
						OFFSET 11.766610 0.000009 -0.000002
						CHANNELS 3 Zrotation Yrotation Xrotation
						End Site
						{
							OFFSET 0.000000 0.000000 0.000000
						}
					}
				}
				JOINT LeftShoulder
				{
					OFFSET 19.745903 -1.480377 6.000115
					CHANNELS 3 Zrotation Yrotation Xrotation
					JOINT LeftArm
					{
						OFFSET 11.284125 -0.000014 -0.000024
						CHANNELS 3 Zrotation Yrotation Xrotation
						JOINT LeftForeArm
						{
							OFFSET 33.000046 -0.000012 0.000029
							CHANNELS 3 Zrotation Yrotation Xrotation
							JOINT LeftHand
							{
								OFFSET 25.199989 0.000034 0.000012
								CHANNELS 3 Zrotation Yrotation Xrotation
								End Site
								{
									OFFSET 0.000000 0.000000 0.000000
								}
							}
						}
					}
				}
				JOINT RightShoulder
				{
					OFFSET 19.746098 -1.480362 -6.000071
					CHANNELS 3 Zrotation Yrotation Xrotation
					JOINT RightArm
					{
						OFFSET 11.284137 -0.000006 -0.000008
						CHANNELS 3 Zrotation Yrotation Xrotation
						JOINT RightForeArm
						{
							OFFSET 33.000095 0.000017 0.000000
							CHANNELS 3 Zrotation Yrotation Xrotation
							JOINT RightHand
							{
								OFFSET 25.199778 0.000144 0.000423
								CHANNELS 3 Zrotation Yrotation Xrotation
								End Site
								{
									OFFSET 0.000000 0.000000 0.000000
								}
							}
						}
					}
				}
			}
		}
	}
}
MOTION
Frames: 5
Frame Time: 0.033333
57.598579 33.634510 -458.020508 116.927306 37.932992 -119.702590 118.023551 -7.689694 175.917956 -139.108605 5.478591 25.083431 73.632636 -25.511767 -20.353346 21.454553 0.003091 -0.000007 97.452845 27.046707 -168.629584 -109.997492 -2.978808 6.226404 83.259077 -1.656605 11.054412 21.454560 -0.003107 -0.000023 17.236225 0.331212 5.602726 24.434127 -0.527607 11.148592 24.122568 -0.460572 11.151539 16.766299 -2.599987 -2.862564 -35.453982 19.073146 -13.838821 106.270640 -79.578589 72.923457 -17.242792 22.200372 -10.626989 -53.050035 -19.852602 2.177668 -55.968612 -34.133624 67.222920 84.021449 75.124417 -95.527422 -89.180947 -19.097040 8.693367 -55.291426 21.827562 -2.423063 -6.007445 20.868579 -40.767176 
59.225639 35.055809 -457.252197 117.432317 37.432620 -120.543290 118.981813 -12.187608 178.496216 -138.652608 5.558026 27.346717 73.267323 -27.355154 -20.618890 21.454551 0.003096 0.000006 92.649310 26.066107 -160.046277 -114.375602 -3.803864 7.627923 85.902743 -2.662190 12.075539 21.454558 -0.003108 -0.000015 17.418444 -0.105154 5.186231 24.766370 -1.317079 10.229910 24.453703 -1.255456 10.237571 19.072128 2.579134 -1.400304 -35.178770 17.675555 -11.285461 98.629817 -78.921005 80.625479 -13.268255 20.174818 -8.463074 -47.258410 -19.603751 1.969545 -53.111076 -37.852072 63.643429 82.042600 76.160400 -97.394604 -88.031166 -16.613337 15.309533 -68.008139 18.599365 -2.696333 2.958988 6.922058 -34.756360 
60.959961 35.921921 -456.392090 117.035401 36.682439 -121.527001 119.851747 -15.385805 -179.687046 -138.523408 5.642237 29.370568 73.394078 -28.952376 -21.011223 21.454551 0.003092 -0.000001 88.095438 25.350790 -152.031241 -117.477806 -4.326748 8.230131 87.621587 -3.217707 12.207751 21.454560 -0.003109 -0.000018 17.498624 -0.482301 4.608385 24.910805 -1.944367 9.005755 24.596794 -1.890038 9.017213 21.899125 6.502906 0.118663 -35.059149 16.403932 -9.029313 91.178839 -77.810061 88.160195 -9.033653 17.527203 -1.781859 -39.307981 -18.279772 1.653417 -48.551413 -44.544684 57.630916 74.984658 78.118123 -104.208988 -87.957209 -10.797921 14.718824 -72.870940 14.723340 -2.628193 4.153319 3.287585 -11.138776 
62.765751 36.366100 -455.563385 116.021008 35.554792 -122.442588 120.852766 -17.436699 -178.574736 -138.636188 5.790749 30.941334 73.573008 -30.307465 -21.691212 21.454555 0.003086 0.000002 84.376578 24.403199 -144.561773 -118.882011 -4.810028 10.896882 88.714342 -5.502020 10.373541 21.454551 -0.003107 -0.000018 17.547714 -0.799375 4.018482 25.004435 -2.447141 7.770809 24.689232 -2.400177 7.785340 23.697681 10.527629 1.028281 -34.497103 15.333539 -7.602334 85.959686 -76.405495 93.463626 -5.505521 14.387040 6.411649 -31.783312 -14.489478 1.232423 -40.702241 -49.698574 48.392116 61.614112 80.697961 -117.236372 -87.092254 -4.279026 11.684342 -78.903220 12.904390 -2.760180 -0.103184 10.344293 -17.562331 
64.643143 36.457470 -454.940186 114.727698 33.743996 -123.010915 122.596718 -18.531203 -178.261558 -138.884001 5.911475 31.821035 73.489236 -31.287184 -22.582349 21.454555 0.003089 0.000003 82.706317 23.248004 -138.944257 -118.570390 -5.117860 13.608129 89.090057 -7.636809 9.163191 21.454555 -0.003107 -0.000017 17.693482 -1.002935 3.355193 25.304442 -2.714195 6.411614 24.988140 -2.675380 6.427813 24.824538 14.158376 1.669330 -33.967330 14.478876 -6.643392 83.578689 -75.242949 95.916299 -2.537454 12.289566 17.038462 -26.612536 -11.760320 0.960448 -29.245968 -53.049270 36.983384 40.624975 82.979176 -137.871863 -85.540729 1.679097 13.073210 -84.337393 10.990378 -2.864814 -6.704705 10.130144 -37.716503 
